<?xml version="1.0" encoding="UTF-8"?>
<svg id="Camada_1" data-name="Camada 1" xmlns="http://www.w3.org/2000/svg" xmlns:xlink="http://www.w3.org/1999/xlink" viewBox="0 0 1080 728">
  <defs>
    <style>
      .cls-1 {
        fill: #e5e3e4;
      }

      .cls-2 {
        fill: url(#Gradiente_sem_nome_8);
      }
    </style>
    <linearGradient id="Gradiente_sem_nome_8" data-name="Gradiente sem nome 8" x1="74" y1="199.05" x2="419.59" y2="544.64" gradientUnits="userSpaceOnUse">
      <stop offset="0" stop-color="#ad3e2d"/>
      <stop offset="1" stop-color="#ee7f27"/>
    </linearGradient>
  </defs>
  <path class="cls-1" d="M1057.9,570.57l-25.71,27.34-35.34,36.73-38.42,39.8-35.18,36.23-16.48,17.23c-5.2-3.05-8.26-8.22-12.38-12.49l-32.07-33.22-32.07-33.25-38.06-39.44-37.04-38.88,71.75-.49-16.86-22.3-116.03-152.4-38.85,46.47-.2,86.56-64.17-.05-.05-307.03,64.23-.18.5,122.81,71.03-81.68,36.62-41.06,75.62.18-90.76,109.17,96.94,88.72,140.59,127.66.47,23.4,71.91.15Z"/>
  <path class="cls-2" d="M233.56,419.85c-.03-22.92-13.78-41.28-34.89-49.76,18.27-7.9,27.42-22.53,30.63-40.67,1.59-19.52,1.49-38.94-.33-58.49-3.05-15-8.53-28.82-21.21-37.61-11.37-7.89-25.15-11.88-39.44-11.88h-96.5c-33.45-.02-58.03,19.88-61.37,53.95-1.59,16.2-1.53,32.08-.45,48.21,1.37,20.49,12.58,37.91,31.05,46.35-23.39,9.17-33.05,28.27-35.29,51.74l.28,48.64c.09,15.59,6.08,30.48,17.26,41.43,12.13,11.86,28.63,16.94,45.84,16.93l102.7-.06c35.61-.02,61.83-24.78,61.79-58.51l-.05-50.26ZM88.21,275.65l63.25.05c8.92,0,14.76,5.99,14.73,14.73l-.16,38.11c-.03,8.13-6.12,14.61-14.88,14.6l-62.77-.09c-7.59-.01-14.49-6.07-14.54-13.68l-.25-40c-.05-7.91,6.47-13.74,14.62-13.73ZM168.96,458.36c-.02,7.36-4.99,14.54-13.58,14.55l-70.03.12c-8.44.01-15-6.91-14.96-15.22l.22-44.78c.04-9,7.34-15.99,16.57-16l64.62-.07c10.16-.01,17.31,8.19,17.29,17.83l-.12,43.58ZM493.88,281.75c-.12-34.02-24.32-59.97-58.98-60.13l-97.77-.46c-26.08-.12-51.26,9.87-60.72,34.46-3.36,8.75-6.02,18.13-6,28.15l.49,184.5c.09,34.72,25.77,59.61,60.82,59.73l96.46.33c27.78.1,52.68-11.1,61.45-37.71,3.81-11.58,4.91-23.13,4.86-35.71l-.62-173.17ZM429.98,457.54c0,7.87-5.92,13.44-13.46,13.45l-67.06.07c-8.5,0-14.88-5.92-14.89-14.96l-.17-162.72c-.01-8.97,6.32-15.18,14.98-15.16l67.64.19c7.3.02,13,5.85,13,13.63l-.03,165.5Z"/>
  <path class="cls-1" d="M1073.16,320.38l-63.95.05-.29-29.09c-.08-8.22-5.63-13.6-13.4-13.59l-70.65.1c-8.86.01-14.19,6.59-14.19,15.49l-.07,158.2-20.44-19.07-43.44-39.64.64-113.13c.19-34.38,26.62-58.29,62.53-58.26l103.23.09c16.11.01,30.85,5.3,42.38,15.71,10.92,11.19,16.96,25.35,17.15,41.06l.51,42.08Z"/>
  <path class="cls-1" d="M682.25,37.55c-.66-20.74-15.25-36.77-36.59-36.84l-106.63-.37-.08,174.59,102.81.05c23.85.01,40.56-14.37,40.55-38.89l-.06-98.53ZM642.7,130.14c.04,6.02-3.6,10.48-9.18,10.49l-54.89.13-.06-106.47,53.77-.07c6.02,0,10.23,4.33,10.38,10.31l-.03,85.61Z"/>
  <path class="cls-1" d="M121.09,110.09c35.89-9.21,28.47-40.94,28.28-75.43-1.27-18.79-14.77-33.61-34.43-33.73L9.01.25l-.12,174.69,39.72-.08v-62.65s31.3-.03,31.3-.03l33.34,62.6,42.44-.37-34.6-64.32ZM101.6,78.21l-53,.1-.03-45.04,53.04.04c5.3.39,8.96,4.1,8.82,9.51v25.27c.46,6.18-3.5,9.79-8.83,10.13Z"/>
  <path class="cls-1" d="M325.22,36.77c-.04-21.09-16.58-36.68-37.31-36.66l-70.14.05c-12.66,0-25.1,6-31.71,16.68-4.73,7.65-6.13,16.94-6.09,26.03l.43,96.68c.09,20.7,16.35,35.56,36.8,35.56h71.28c20.38,0,36.96-15.44,36.92-36.62l-.18-101.71ZM276.97,141.29l-46.83.19c-6.31.02-10.82-4.33-10.82-10.81l.05-88.6c0-4.33,3.8-8.03,8.04-8.03l50.58.02c4.21,0,8.02,3.68,8.03,8.03l.07,89.94c0,4.98-3.73,9.22-9.14,9.25Z"/>
  <path class="cls-1" d="M1068.79,36.09c0-19.55-15.1-35.69-34.8-35.69h-75.45c-20.73,0-35.19,16.69-35.19,37.08l-.02,100.52c0,20.37,15,36.87,35.56,36.89l74.09.06c20.44.01,35.85-15.85,35.84-35.56l-.03-103.3ZM1029.32,132.26c0,4.94-3.3,8.17-8.45,9.18l-48.82-.02c-4.79,0-9.18-3.73-9.18-8.95l.05-90.92c0-4.89,5.56-7.73,9.69-7.73l47.2-.02c5.01,0,9.51,3.68,9.51,9.23v89.21Z"/>
  <path class="cls-1" d="M1074.25,357.5l-.04,105.65c0,10.61-1.67,20.41-5.33,29.89-7.02,18.21-22.26,30.22-41.45,33.34l-32.75,2.08-61.28-56.65,62.93-.9c7.68.01,13.54-5.3,13.52-13.1l-.12-46.23-55.11-.02-.22-54,119.84-.06Z"/>
  <path class="cls-1" d="M454.29.5h-50.62s-62.11,174.31-62.11,174.31l40.7.16,13.11-38.31,67.57.38,13.05,37.82,42.41.05L454.29.5ZM405.9,103.21l22.66-68.12,23.26,68.04-45.93.09Z"/>
  <polygon class="cls-1" points="847.97 34.36 847.98 174.95 808.3 174.85 808.29 34.62 756.8 34.41 756.66 .44 900.19 .19 900.28 34.34 847.97 34.36"/>
</svg>